{
    "asset" : {
        "generator" : "Khronos glTF Blender I/O v1.6.16",
        "version" : "2.0"
    },
    "scene" : 0,
    "scenes" : [
        {
            "name" : "Scene",
            "nodes" : [
                3
            ]
        }
    ],
    "nodes" : [
        {
            "mesh" : 0,
            "name" : "base.081"
        },
        {
            "children" : [
                0
            ],
            "name" : "HarbourSeal"
        },
        {
            "children" : [
                1
            ],
            "name" : "Animals"
        },
        {
            "children" : [
                2
            ],
            "name" : "ANIMALS",
            "rotation" : [
                0.7071068286895752,
                0,
                0,
                0.7071067094802856
            ],
            "scale" : [
                0.009999999776482582,
                0.009999999776482582,
                0.009999999776482582
            ]
        }
    ],
    "materials" : [
        {
            "doubleSided" : true,
            "name" : "Mat_Standard",
            "pbrMetallicRoughness" : {
                "metallicFactor" : 0
            }
        }
    ],
    "meshes" : [
        {
            "name" : "Mesh.130",
            "primitives" : [
                {
                    "attributes" : {
                        "POSITION" : 0,
                        "NORMAL" : 1,
                        "TEXCOORD_0" : 2,
                        "COLOR_0" : 3
                    },
                    "indices" : 4,
                    "material" : 0
                }
            ]
        }
    ],
    "accessors" : [
        {
            "bufferView" : 0,
            "componentType" : 5126,
            "count" : 569,
            "max" : [
                56.78490447998047,
                98.92329406738281,
                0.025146543979644775
            ],
            "min" : [
                -56.78490447998047,
                -93.14031982421875,
                -71.30987548828125
            ],
            "type" : "VEC3"
        },
        {
            "bufferView" : 1,
            "componentType" : 5126,
            "count" : 569,
            "type" : "VEC3"
        },
        {
            "bufferView" : 2,
            "componentType" : 5126,
            "count" : 569,
            "type" : "VEC2"
        },
        {
            "bufferView" : 3,
            "componentType" : 5123,
            "count" : 569,
            "normalized" : true,
            "type" : "VEC4"
        },
        {
            "bufferView" : 4,
            "componentType" : 5123,
            "count" : 3048,
            "type" : "SCALAR"
        }
    ],
    "bufferViews" : [
        {
            "buffer" : 0,
            "byteLength" : 6828,
            "byteOffset" : 0
        },
        {
            "buffer" : 0,
            "byteLength" : 6828,
            "byteOffset" : 6828
        },
        {
            "buffer" : 0,
            "byteLength" : 4552,
            "byteOffset" : 13656
        },
        {
            "buffer" : 0,
            "byteLength" : 4552,
            "byteOffset" : 18208
        },
        {
            "buffer" : 0,
            "byteLength" : 6096,
            "byteOffset" : 22760
        }
    ],
    "buffers" : [
        {
            "byteLength" : 28856,
            "uri" : "HarbourSeal.bin"
        }
    ]
}
