{
    "asset" : {
        "generator" : "Khronos glTF Blender I/O v1.6.16",
        "version" : "2.0"
    },
    "scene" : 0,
    "scenes" : [
        {
            "name" : "Scene",
            "nodes" : [
                3
            ]
        }
    ],
    "nodes" : [
        {
            "mesh" : 0,
            "name" : "alt604"
        },
        {
            "children" : [
                0
            ],
            "name" : "Lion"
        },
        {
            "children" : [
                1
            ],
            "name" : "Animals"
        },
        {
            "children" : [
                2
            ],
            "name" : "ANIMALS",
            "rotation" : [
                0.7071068286895752,
                0,
                0,
                0.7071067094802856
            ],
            "scale" : [
                0.009999999776482582,
                0.009999999776482582,
                0.009999999776482582
            ]
        }
    ],
    "materials" : [
        {
            "doubleSided" : true,
            "name" : "Mat_Standard",
            "pbrMetallicRoughness" : {
                "metallicFactor" : 0
            }
        }
    ],
    "meshes" : [
        {
            "name" : "Mesh.104",
            "primitives" : [
                {
                    "attributes" : {
                        "POSITION" : 0,
                        "NORMAL" : 1,
                        "TEXCOORD_0" : 2,
                        "COLOR_0" : 3
                    },
                    "indices" : 4,
                    "material" : 0
                }
            ]
        }
    ],
    "accessors" : [
        {
            "bufferView" : 0,
            "componentType" : 5126,
            "count" : 713,
            "max" : [
                33.49567794799805,
                131.98968505859375,
                1.3244515173482796e-07
            ],
            "min" : [
                -33.49567794799805,
                -108.04859161376953,
                -155.85731506347656
            ],
            "type" : "VEC3"
        },
        {
            "bufferView" : 1,
            "componentType" : 5126,
            "count" : 713,
            "type" : "VEC3"
        },
        {
            "bufferView" : 2,
            "componentType" : 5126,
            "count" : 713,
            "type" : "VEC2"
        },
        {
            "bufferView" : 3,
            "componentType" : 5123,
            "count" : 713,
            "normalized" : true,
            "type" : "VEC4"
        },
        {
            "bufferView" : 4,
            "componentType" : 5123,
            "count" : 3792,
            "type" : "SCALAR"
        }
    ],
    "bufferViews" : [
        {
            "buffer" : 0,
            "byteLength" : 8556,
            "byteOffset" : 0
        },
        {
            "buffer" : 0,
            "byteLength" : 8556,
            "byteOffset" : 8556
        },
        {
            "buffer" : 0,
            "byteLength" : 5704,
            "byteOffset" : 17112
        },
        {
            "buffer" : 0,
            "byteLength" : 5704,
            "byteOffset" : 22816
        },
        {
            "buffer" : 0,
            "byteLength" : 7584,
            "byteOffset" : 28520
        }
    ],
    "buffers" : [
        {
            "byteLength" : 36104,
            "uri" : "Lion.bin"
        }
    ]
}
