{
    "asset" : {
        "generator" : "Khronos glTF Blender I/O v1.6.16",
        "version" : "2.0"
    },
    "scene" : 0,
    "scenes" : [
        {
            "name" : "Scene",
            "nodes" : [
                3
            ]
        }
    ],
    "nodes" : [
        {
            "mesh" : 0,
            "name" : "base.070"
        },
        {
            "children" : [
                0
            ],
            "name" : "Zebra"
        },
        {
            "children" : [
                1
            ],
            "name" : "Animals"
        },
        {
            "children" : [
                2
            ],
            "name" : "ANIMALS",
            "rotation" : [
                0.7071068286895752,
                0,
                0,
                0.7071067094802856
            ],
            "scale" : [
                0.009999999776482582,
                0.009999999776482582,
                0.009999999776482582
            ]
        }
    ],
    "materials" : [
        {
            "doubleSided" : true,
            "name" : "Mat_Standard",
            "pbrMetallicRoughness" : {
                "metallicFactor" : 0
            }
        }
    ],
    "meshes" : [
        {
            "name" : "Mesh.113",
            "primitives" : [
                {
                    "attributes" : {
                        "POSITION" : 0,
                        "NORMAL" : 1,
                        "TEXCOORD_0" : 2,
                        "COLOR_0" : 3
                    },
                    "indices" : 4,
                    "material" : 0
                }
            ]
        }
    ],
    "accessors" : [
        {
            "bufferView" : 0,
            "componentType" : 5126,
            "count" : 1246,
            "max" : [
                34.47405242919922,
                160.90225219726562,
                7.938746421132237e-06
            ],
            "min" : [
                -34.47405242919922,
                -111.38739013671875,
                -220.69076538085938
            ],
            "type" : "VEC3"
        },
        {
            "bufferView" : 1,
            "componentType" : 5126,
            "count" : 1246,
            "type" : "VEC3"
        },
        {
            "bufferView" : 2,
            "componentType" : 5126,
            "count" : 1246,
            "type" : "VEC2"
        },
        {
            "bufferView" : 3,
            "componentType" : 5123,
            "count" : 1246,
            "normalized" : true,
            "type" : "VEC4"
        },
        {
            "bufferView" : 4,
            "componentType" : 5123,
            "count" : 4728,
            "type" : "SCALAR"
        }
    ],
    "bufferViews" : [
        {
            "buffer" : 0,
            "byteLength" : 14952,
            "byteOffset" : 0
        },
        {
            "buffer" : 0,
            "byteLength" : 14952,
            "byteOffset" : 14952
        },
        {
            "buffer" : 0,
            "byteLength" : 9968,
            "byteOffset" : 29904
        },
        {
            "buffer" : 0,
            "byteLength" : 9968,
            "byteOffset" : 39872
        },
        {
            "buffer" : 0,
            "byteLength" : 9456,
            "byteOffset" : 49840
        }
    ],
    "buffers" : [
        {
            "byteLength" : 59296,
            "uri" : "Zebra.bin"
        }
    ]
}
