{
    "asset" : {
        "generator" : "Khronos glTF Blender I/O v1.6.16",
        "version" : "2.0"
    },
    "scene" : 0,
    "scenes" : [
        {
            "name" : "Scene",
            "nodes" : [
                3
            ]
        }
    ],
    "nodes" : [
        {
            "mesh" : 0,
            "name" : "base.054"
        },
        {
            "children" : [
                0
            ],
            "name" : "Bobcat"
        },
        {
            "children" : [
                1
            ],
            "name" : "Animals"
        },
        {
            "children" : [
                2
            ],
            "name" : "ANIMALS",
            "rotation" : [
                0.7071068286895752,
                0,
                0,
                0.7071067094802856
            ],
            "scale" : [
                0.009999999776482582,
                0.009999999776482582,
                0.009999999776482582
            ]
        }
    ],
    "materials" : [
        {
            "doubleSided" : true,
            "name" : "Mat_Standard",
            "pbrMetallicRoughness" : {
                "metallicFactor" : 0
            }
        }
    ],
    "meshes" : [
        {
            "name" : "Mesh.095",
            "primitives" : [
                {
                    "attributes" : {
                        "POSITION" : 0,
                        "NORMAL" : 1,
                        "TEXCOORD_0" : 2,
                        "COLOR_0" : 3
                    },
                    "indices" : 4,
                    "material" : 0
                }
            ]
        }
    ],
    "accessors" : [
        {
            "bufferView" : 0,
            "componentType" : 5126,
            "count" : 675,
            "max" : [
                16.868858337402344,
                51.81995391845703,
                0.11537355929613113
            ],
            "min" : [
                -16.868858337402344,
                -51.34484100341797,
                -65.19667053222656
            ],
            "type" : "VEC3"
        },
        {
            "bufferView" : 1,
            "componentType" : 5126,
            "count" : 675,
            "type" : "VEC3"
        },
        {
            "bufferView" : 2,
            "componentType" : 5126,
            "count" : 675,
            "type" : "VEC2"
        },
        {
            "bufferView" : 3,
            "componentType" : 5123,
            "count" : 675,
            "normalized" : true,
            "type" : "VEC4"
        },
        {
            "bufferView" : 4,
            "componentType" : 5123,
            "count" : 3750,
            "type" : "SCALAR"
        }
    ],
    "bufferViews" : [
        {
            "buffer" : 0,
            "byteLength" : 8100,
            "byteOffset" : 0
        },
        {
            "buffer" : 0,
            "byteLength" : 8100,
            "byteOffset" : 8100
        },
        {
            "buffer" : 0,
            "byteLength" : 5400,
            "byteOffset" : 16200
        },
        {
            "buffer" : 0,
            "byteLength" : 5400,
            "byteOffset" : 21600
        },
        {
            "buffer" : 0,
            "byteLength" : 7500,
            "byteOffset" : 27000
        }
    ],
    "buffers" : [
        {
            "byteLength" : 34500,
            "uri" : "BobCat.bin"
        }
    ]
}
