{
    "asset" : {
        "generator" : "Khronos glTF Blender I/O v1.6.16",
        "version" : "2.0"
    },
    "scene" : 0,
    "scenes" : [
        {
            "name" : "Scene",
            "nodes" : [
                3
            ]
        }
    ],
    "nodes" : [
        {
            "mesh" : 0,
            "name" : "base.027"
        },
        {
            "children" : [
                0
            ],
            "name" : "GrayWolf"
        },
        {
            "children" : [
                1
            ],
            "name" : "Animals"
        },
        {
            "children" : [
                2
            ],
            "name" : "ANIMALS",
            "rotation" : [
                0.7071068286895752,
                0,
                0,
                0.7071067094802856
            ],
            "scale" : [
                0.009999999776482582,
                0.009999999776482582,
                0.009999999776482582
            ]
        }
    ],
    "materials" : [
        {
            "doubleSided" : true,
            "name" : "Mat_Standard",
            "pbrMetallicRoughness" : {
                "metallicFactor" : 0
            }
        }
    ],
    "meshes" : [
        {
            "name" : "Mesh.057",
            "primitives" : [
                {
                    "attributes" : {
                        "POSITION" : 0,
                        "NORMAL" : 1,
                        "TEXCOORD_0" : 2,
                        "COLOR_0" : 3
                    },
                    "indices" : 4,
                    "material" : 0
                }
            ]
        }
    ],
    "accessors" : [
        {
            "bufferView" : 0,
            "componentType" : 5126,
            "count" : 695,
            "max" : [
                17.77927017211914,
                68.99796295166016,
                0.21212974190711975
            ],
            "min" : [
                -17.77927017211914,
                -85.15216064453125,
                -93.73483276367188
            ],
            "type" : "VEC3"
        },
        {
            "bufferView" : 1,
            "componentType" : 5126,
            "count" : 695,
            "type" : "VEC3"
        },
        {
            "bufferView" : 2,
            "componentType" : 5126,
            "count" : 695,
            "type" : "VEC2"
        },
        {
            "bufferView" : 3,
            "componentType" : 5123,
            "count" : 695,
            "normalized" : true,
            "type" : "VEC4"
        },
        {
            "bufferView" : 4,
            "componentType" : 5123,
            "count" : 3744,
            "type" : "SCALAR"
        }
    ],
    "bufferViews" : [
        {
            "buffer" : 0,
            "byteLength" : 8340,
            "byteOffset" : 0
        },
        {
            "buffer" : 0,
            "byteLength" : 8340,
            "byteOffset" : 8340
        },
        {
            "buffer" : 0,
            "byteLength" : 5560,
            "byteOffset" : 16680
        },
        {
            "buffer" : 0,
            "byteLength" : 5560,
            "byteOffset" : 22240
        },
        {
            "buffer" : 0,
            "byteLength" : 7488,
            "byteOffset" : 27800
        }
    ],
    "buffers" : [
        {
            "byteLength" : 35288,
            "uri" : "GrayWolf.bin"
        }
    ]
}
