{
    "asset" : {
        "generator" : "Khronos glTF Blender I/O v1.6.16",
        "version" : "2.0"
    },
    "scene" : 0,
    "scenes" : [
        {
            "name" : "Scene",
            "nodes" : [
                3
            ]
        }
    ],
    "nodes" : [
        {
            "mesh" : 0,
            "name" : "alt584"
        },
        {
            "children" : [
                0
            ],
            "name" : "Deer"
        },
        {
            "children" : [
                1
            ],
            "name" : "Animals"
        },
        {
            "children" : [
                2
            ],
            "name" : "ANIMALS",
            "rotation" : [
                0.7071068286895752,
                0,
                0,
                0.7071067094802856
            ],
            "scale" : [
                0.009999999776482582,
                0.009999999776482582,
                0.009999999776482582
            ]
        }
    ],
    "materials" : [
        {
            "doubleSided" : true,
            "name" : "Mat_Standard",
            "pbrMetallicRoughness" : {
                "metallicFactor" : 0
            }
        }
    ],
    "meshes" : [
        {
            "name" : "Mesh.042",
            "primitives" : [
                {
                    "attributes" : {
                        "POSITION" : 0,
                        "NORMAL" : 1,
                        "TEXCOORD_0" : 2,
                        "COLOR_0" : 3
                    },
                    "indices" : 4,
                    "material" : 0
                }
            ]
        }
    ],
    "accessors" : [
        {
            "bufferView" : 0,
            "componentType" : 5126,
            "count" : 809,
            "max" : [
                34.79775619506836,
                91.96019744873047,
                0.1412460058927536
            ],
            "min" : [
                -34.79775619506836,
                -92.3848876953125,
                -220.4796600341797
            ],
            "type" : "VEC3"
        },
        {
            "bufferView" : 1,
            "componentType" : 5126,
            "count" : 809,
            "type" : "VEC3"
        },
        {
            "bufferView" : 2,
            "componentType" : 5126,
            "count" : 809,
            "type" : "VEC2"
        },
        {
            "bufferView" : 3,
            "componentType" : 5123,
            "count" : 809,
            "normalized" : true,
            "type" : "VEC4"
        },
        {
            "bufferView" : 4,
            "componentType" : 5123,
            "count" : 4446,
            "type" : "SCALAR"
        }
    ],
    "bufferViews" : [
        {
            "buffer" : 0,
            "byteLength" : 9708,
            "byteOffset" : 0
        },
        {
            "buffer" : 0,
            "byteLength" : 9708,
            "byteOffset" : 9708
        },
        {
            "buffer" : 0,
            "byteLength" : 6472,
            "byteOffset" : 19416
        },
        {
            "buffer" : 0,
            "byteLength" : 6472,
            "byteOffset" : 25888
        },
        {
            "buffer" : 0,
            "byteLength" : 8892,
            "byteOffset" : 32360
        }
    ],
    "buffers" : [
        {
            "byteLength" : 41252,
            "uri" : "Deer1.bin"
        }
    ]
}
