{
    "asset" : {
        "generator" : "Khronos glTF Blender I/O v1.6.16",
        "version" : "2.0"
    },
    "scene" : 0,
    "scenes" : [
        {
            "name" : "Scene",
            "nodes" : [
                3
            ]
        }
    ],
    "nodes" : [
        {
            "mesh" : 0,
            "name" : "alt585"
        },
        {
            "children" : [
                0
            ],
            "name" : "Deer"
        },
        {
            "children" : [
                1
            ],
            "name" : "Animals"
        },
        {
            "children" : [
                2
            ],
            "name" : "ANIMALS",
            "rotation" : [
                0.7071068286895752,
                0,
                0,
                0.7071067094802856
            ],
            "scale" : [
                0.009999999776482582,
                0.009999999776482582,
                0.009999999776482582
            ]
        }
    ],
    "materials" : [
        {
            "doubleSided" : true,
            "name" : "Mat_Standard",
            "pbrMetallicRoughness" : {
                "metallicFactor" : 0
            }
        }
    ],
    "meshes" : [
        {
            "name" : "Mesh.043",
            "primitives" : [
                {
                    "attributes" : {
                        "POSITION" : 0,
                        "NORMAL" : 1,
                        "TEXCOORD_0" : 2,
                        "COLOR_0" : 3
                    },
                    "indices" : 4,
                    "material" : 0
                }
            ]
        }
    ],
    "accessors" : [
        {
            "bufferView" : 0,
            "componentType" : 5126,
            "count" : 593,
            "max" : [
                15.842750549316406,
                82.0044937133789,
                0.1412460058927536
            ],
            "min" : [
                -15.842750549316406,
                -83.65534973144531,
                -159.54815673828125
            ],
            "type" : "VEC3"
        },
        {
            "bufferView" : 1,
            "componentType" : 5126,
            "count" : 593,
            "type" : "VEC3"
        },
        {
            "bufferView" : 2,
            "componentType" : 5126,
            "count" : 593,
            "type" : "VEC2"
        },
        {
            "bufferView" : 3,
            "componentType" : 5123,
            "count" : 593,
            "normalized" : true,
            "type" : "VEC4"
        },
        {
            "bufferView" : 4,
            "componentType" : 5123,
            "count" : 3108,
            "type" : "SCALAR"
        }
    ],
    "bufferViews" : [
        {
            "buffer" : 0,
            "byteLength" : 7116,
            "byteOffset" : 0
        },
        {
            "buffer" : 0,
            "byteLength" : 7116,
            "byteOffset" : 7116
        },
        {
            "buffer" : 0,
            "byteLength" : 4744,
            "byteOffset" : 14232
        },
        {
            "buffer" : 0,
            "byteLength" : 4744,
            "byteOffset" : 18976
        },
        {
            "buffer" : 0,
            "byteLength" : 6216,
            "byteOffset" : 23720
        }
    ],
    "buffers" : [
        {
            "byteLength" : 29936,
            "uri" : "Deer2.bin"
        }
    ]
}
