{
    "asset" : {
        "generator" : "Khronos glTF Blender I/O v1.6.16",
        "version" : "2.0"
    },
    "scene" : 0,
    "scenes" : [
        {
            "name" : "Scene",
            "nodes" : [
                3
            ]
        }
    ],
    "nodes" : [
        {
            "mesh" : 0,
            "name" : "alt577",
            "translation" : [
                0,
                -0.3688705563545227,
                0
            ]
        },
        {
            "children" : [
                0
            ],
            "name" : "BrownBear"
        },
        {
            "children" : [
                1
            ],
            "name" : "Animals"
        },
        {
            "children" : [
                2
            ],
            "name" : "ANIMALS",
            "rotation" : [
                0.7071068286895752,
                0,
                0,
                0.7071067094802856
            ],
            "scale" : [
                0.009999999776482582,
                0.009999999776482582,
                0.009999999776482582
            ]
        }
    ],
    "materials" : [
        {
            "doubleSided" : true,
            "name" : "Mat_Standard",
            "pbrMetallicRoughness" : {
                "metallicFactor" : 0
            }
        }
    ],
    "meshes" : [
        {
            "name" : "Mesh.030",
            "primitives" : [
                {
                    "attributes" : {
                        "POSITION" : 0,
                        "NORMAL" : 1,
                        "TEXCOORD_0" : 2,
                        "COLOR_0" : 3
                    },
                    "indices" : 4,
                    "material" : 0
                }
            ]
        }
    ],
    "accessors" : [
        {
            "bufferView" : 0,
            "componentType" : 5126,
            "count" : 533,
            "max" : [
                40.42167663574219,
                122.13787078857422,
                7.670525519642979e-06
            ],
            "min" : [
                -40.42167663574219,
                -79.77684020996094,
                -131.8048095703125
            ],
            "type" : "VEC3"
        },
        {
            "bufferView" : 1,
            "componentType" : 5126,
            "count" : 533,
            "type" : "VEC3"
        },
        {
            "bufferView" : 2,
            "componentType" : 5126,
            "count" : 533,
            "type" : "VEC2"
        },
        {
            "bufferView" : 3,
            "componentType" : 5123,
            "count" : 533,
            "normalized" : true,
            "type" : "VEC4"
        },
        {
            "bufferView" : 4,
            "componentType" : 5123,
            "count" : 2904,
            "type" : "SCALAR"
        }
    ],
    "bufferViews" : [
        {
            "buffer" : 0,
            "byteLength" : 6396,
            "byteOffset" : 0
        },
        {
            "buffer" : 0,
            "byteLength" : 6396,
            "byteOffset" : 6396
        },
        {
            "buffer" : 0,
            "byteLength" : 4264,
            "byteOffset" : 12792
        },
        {
            "buffer" : 0,
            "byteLength" : 4264,
            "byteOffset" : 17056
        },
        {
            "buffer" : 0,
            "byteLength" : 5808,
            "byteOffset" : 21320
        }
    ],
    "buffers" : [
        {
            "byteLength" : 27128,
            "uri" : "BrownBear2.bin"
        }
    ]
}
