{
    "asset" : {
        "generator" : "Khronos glTF Blender I/O v1.6.16",
        "version" : "2.0"
    },
    "scene" : 0,
    "scenes" : [
        {
            "name" : "Scene",
            "nodes" : [
                3
            ]
        }
    ],
    "nodes" : [
        {
            "mesh" : 0,
            "name" : "base.055"
        },
        {
            "children" : [
                0
            ],
            "name" : "Cheetah"
        },
        {
            "children" : [
                1
            ],
            "name" : "Animals"
        },
        {
            "children" : [
                2
            ],
            "name" : "ANIMALS",
            "rotation" : [
                0.7071068286895752,
                0,
                0,
                0.7071067094802856
            ],
            "scale" : [
                0.009999999776482582,
                0.009999999776482582,
                0.009999999776482582
            ]
        }
    ],
    "materials" : [
        {
            "doubleSided" : true,
            "name" : "Mat_Standard",
            "pbrMetallicRoughness" : {
                "metallicFactor" : 0
            }
        }
    ],
    "meshes" : [
        {
            "name" : "Mesh.096",
            "primitives" : [
                {
                    "attributes" : {
                        "POSITION" : 0,
                        "TEXCOORD_0" : 1
                    },
                    "indices" : 2,
                    "material" : 0
                }
            ]
        }
    ],
    "accessors" : [
        {
            "bufferView" : 0,
            "componentType" : 5126,
            "count" : 671,
            "max" : [
                22.551246643066406,
                91.92573547363281,
                0.16107654571533203
            ],
            "min" : [
                -22.55126190185547,
                -90.20608520507812,
                -109.43543243408203
            ],
            "type" : "VEC3"
        },
        {
            "bufferView" : 1,
            "componentType" : 5126,
            "count" : 671,
            "type" : "VEC2"
        },
        {
            "bufferView" : 2,
            "componentType" : 5123,
            "count" : 3612,
            "type" : "SCALAR"
        }
    ],
    "bufferViews" : [
        {
            "buffer" : 0,
            "byteLength" : 8052,
            "byteOffset" : 0
        },
        {
            "buffer" : 0,
            "byteLength" : 5368,
            "byteOffset" : 8052
        },
        {
            "buffer" : 0,
            "byteLength" : 7224,
            "byteOffset" : 13420
        }
    ],
    "buffers" : [
        {
            "byteLength" : 20644,
            "uri" : "CheetahPolly.bin"
        }
    ]
}
