{
    "asset" : {
        "generator" : "Khronos glTF Blender I/O v1.6.16",
        "version" : "2.0"
    },
    "scene" : 0,
    "scenes" : [
        {
            "name" : "Scene",
            "nodes" : [
                3
            ]
        }
    ],
    "nodes" : [
        {
            "mesh" : 0,
            "name" : "base.116"
        },
        {
            "children" : [
                0
            ],
            "name" : "Alligator"
        },
        {
            "children" : [
                1
            ],
            "name" : "Reptiles"
        },
        {
            "children" : [
                2
            ],
            "name" : "ANIMALS",
            "rotation" : [
                0.7071068286895752,
                0,
                0,
                0.7071067094802856
            ],
            "scale" : [
                0.009999999776482582,
                0.009999999776482582,
                0.009999999776482582
            ]
        }
    ],
    "materials" : [
        {
            "doubleSided" : true,
            "name" : "Mat_Standard",
            "pbrMetallicRoughness" : {
                "metallicFactor" : 0
            }
        }
    ],
    "meshes" : [
        {
            "name" : "Mesh.170",
            "primitives" : [
                {
                    "attributes" : {
                        "POSITION" : 0,
                        "NORMAL" : 1,
                        "TEXCOORD_0" : 2,
                        "COLOR_0" : 3
                    },
                    "indices" : 4,
                    "material" : 0
                }
            ]
        }
    ],
    "accessors" : [
        {
            "bufferView" : 0,
            "componentType" : 5126,
            "count" : 583,
            "max" : [
                86.6971664428711,
                217.58497619628906,
                2.3841856489070778e-07
            ],
            "min" : [
                -86.6971664428711,
                -322.3906555175781,
                -67.28886413574219
            ],
            "type" : "VEC3"
        },
        {
            "bufferView" : 1,
            "componentType" : 5126,
            "count" : 583,
            "type" : "VEC3"
        },
        {
            "bufferView" : 2,
            "componentType" : 5126,
            "count" : 583,
            "type" : "VEC2"
        },
        {
            "bufferView" : 3,
            "componentType" : 5123,
            "count" : 583,
            "normalized" : true,
            "type" : "VEC4"
        },
        {
            "bufferView" : 4,
            "componentType" : 5123,
            "count" : 3036,
            "type" : "SCALAR"
        }
    ],
    "bufferViews" : [
        {
            "buffer" : 0,
            "byteLength" : 6996,
            "byteOffset" : 0
        },
        {
            "buffer" : 0,
            "byteLength" : 6996,
            "byteOffset" : 6996
        },
        {
            "buffer" : 0,
            "byteLength" : 4664,
            "byteOffset" : 13992
        },
        {
            "buffer" : 0,
            "byteLength" : 4664,
            "byteOffset" : 18656
        },
        {
            "buffer" : 0,
            "byteLength" : 6072,
            "byteOffset" : 23320
        }
    ],
    "buffers" : [
        {
            "byteLength" : 29392,
            "uri" : "Alligator.bin"
        }
    ]
}
