{
    "asset" : {
        "generator" : "Khronos glTF Blender I/O v1.6.16",
        "version" : "2.0"
    },
    "scene" : 0,
    "scenes" : [
        {
            "name" : "Scene",
            "nodes" : [
                3
            ]
        }
    ],
    "nodes" : [
        {
            "mesh" : 0,
            "name" : "base.053"
        },
        {
            "children" : [
                0
            ],
            "name" : "AddraGazelle"
        },
        {
            "children" : [
                1
            ],
            "name" : "Animals"
        },
        {
            "children" : [
                2
            ],
            "name" : "ANIMALS",
            "rotation" : [
                0.7071068286895752,
                0,
                0,
                0.7071067094802856
            ],
            "scale" : [
                0.009999999776482582,
                0.009999999776482582,
                0.009999999776482582
            ]
        }
    ],
    "materials" : [
        {
            "doubleSided" : true,
            "name" : "Mat_Standard",
            "pbrMetallicRoughness" : {
                "metallicFactor" : 0
            }
        }
    ],
    "meshes" : [
        {
            "name" : "Mesh.094",
            "primitives" : [
                {
                    "attributes" : {
                        "POSITION" : 0,
                        "NORMAL" : 1,
                        "TEXCOORD_0" : 2,
                        "COLOR_0" : 3
                    },
                    "indices" : 4,
                    "material" : 0
                }
            ]
        }
    ],
    "accessors" : [
        {
            "bufferView" : 0,
            "componentType" : 5126,
            "count" : 863,
            "max" : [
                24.74386978149414,
                124.4151840209961,
                5.5286741371674e-06
            ],
            "min" : [
                -24.74386978149414,
                -43.38859558105469,
                -178.9636688232422
            ],
            "type" : "VEC3"
        },
        {
            "bufferView" : 1,
            "componentType" : 5126,
            "count" : 863,
            "type" : "VEC3"
        },
        {
            "bufferView" : 2,
            "componentType" : 5126,
            "count" : 863,
            "type" : "VEC2"
        },
        {
            "bufferView" : 3,
            "componentType" : 5123,
            "count" : 863,
            "normalized" : true,
            "type" : "VEC4"
        },
        {
            "bufferView" : 4,
            "componentType" : 5123,
            "count" : 4740,
            "type" : "SCALAR"
        }
    ],
    "bufferViews" : [
        {
            "buffer" : 0,
            "byteLength" : 10356,
            "byteOffset" : 0
        },
        {
            "buffer" : 0,
            "byteLength" : 10356,
            "byteOffset" : 10356
        },
        {
            "buffer" : 0,
            "byteLength" : 6904,
            "byteOffset" : 20712
        },
        {
            "buffer" : 0,
            "byteLength" : 6904,
            "byteOffset" : 27616
        },
        {
            "buffer" : 0,
            "byteLength" : 9480,
            "byteOffset" : 34520
        }
    ],
    "buffers" : [
        {
            "byteLength" : 44000,
            "uri" : "AddraGazelle.bin"
        }
    ]
}
